<svg width="48" height="48" viewBox="0 0 48 48" fill="none" xmlns="http://www.w3.org/2000/svg">
<g filter="url(#filter0_d)">
<circle cx="24" cy="20" r="20" fill="white"/>
</g>
<g clip-path="url(#clip0)">
<path d="M21.6392 18.1763V18.9201L26.8603 15.8305C26.9055 15.8054 26.9535 15.7915 27.0043 15.7915C27.0552 15.7915 27.106 15.8054 27.1484 15.8305L32.3695 18.9201V18.1763L27.0043 15.0002L21.6392 18.1763Z" fill="#2F80ED"/>
<path d="M31.8048 14.9531H30.6753V15.2317H31.8048V14.9531Z" fill="#2F80ED"/>
<path d="M30.6753 16.5243L31.8048 17.193V15.7888H30.6753V16.5243Z" fill="#2F80ED"/>
<path d="M9.21662 18.5176C8.71153 18.5176 8.31229 18.6874 8.01888 19.0269C7.72757 19.3644 7.58191 19.8274 7.58191 20.4159C7.58191 21.0213 7.72233 21.4896 8.00316 21.8207C8.28609 22.1498 8.68848 22.3143 9.21034 22.3143C9.53098 22.3143 9.89669 22.2563 10.3075 22.1403V22.6117C9.98891 22.7319 9.59594 22.792 9.12859 22.792C8.45166 22.792 7.92876 22.5853 7.55991 22.1719C7.19315 21.7585 7.00977 21.1711 7.00977 20.4096C7.00977 19.9329 7.09779 19.5153 7.27383 19.1567C7.45197 18.7981 7.70766 18.5218 8.04089 18.3277C8.37621 18.1337 8.77022 18.0366 9.22291 18.0366C9.70492 18.0366 10.1262 18.1252 10.4866 18.3024L10.2603 18.7643C9.9124 18.5998 9.56452 18.5176 9.21662 18.5176ZM11.7221 19.2611V21.5107C11.7221 21.7933 11.786 22.0042 11.9139 22.1434C12.0417 22.2827 12.2419 22.3522 12.5143 22.3522C12.8748 22.3522 13.1378 22.2531 13.3034 22.0548C13.471 21.8566 13.5549 21.5328 13.5549 21.0835V19.2611H14.0767V22.7288H13.646L13.5706 22.2637H13.5423C13.4354 22.4345 13.2866 22.5653 13.0959 22.656C12.9073 22.7467 12.6914 22.792 12.4483 22.792C12.0291 22.792 11.7148 22.6918 11.5052 22.4915C11.2977 22.2911 11.194 21.9705 11.194 21.5296V19.2611H11.7221ZM17.409 21.7827C17.409 22.1055 17.2895 22.3544 17.0506 22.5294C16.8117 22.7045 16.4764 22.792 16.0446 22.792C15.5878 22.792 15.2315 22.7193 14.9758 22.5737V22.0865C15.1414 22.1709 15.3185 22.2373 15.5071 22.2858C15.6978 22.3343 15.8812 22.3586 16.0572 22.3586C16.3297 22.3586 16.5393 22.3153 16.6859 22.2288C16.8326 22.1403 16.906 22.0063 16.906 21.827C16.906 21.692 16.8473 21.5771 16.73 21.4822C16.6147 21.3851 16.3883 21.2713 16.0509 21.1405C15.7303 21.0202 15.5018 20.9158 15.3656 20.8272C15.2315 20.7365 15.1309 20.6342 15.0638 20.5203C14.9988 20.4064 14.9664 20.2704 14.9664 20.1122C14.9664 19.8295 15.0806 19.607 15.309 19.4446C15.5375 19.2801 15.8508 19.1978 16.249 19.1978C16.6199 19.1978 16.9825 19.2737 17.3367 19.4256L17.1512 19.8527C16.8054 19.7093 16.4921 19.6376 16.2112 19.6376C15.964 19.6376 15.7774 19.6766 15.6517 19.7547C15.5259 19.8327 15.4631 19.9403 15.4631 20.0774C15.4631 20.1702 15.4861 20.2493 15.5322 20.3147C15.5804 20.3801 15.6569 20.4423 15.7617 20.5013C15.8665 20.5604 16.0677 20.6458 16.3653 20.7576C16.774 20.9074 17.0496 21.0582 17.1921 21.2101C17.3367 21.3619 17.409 21.5528 17.409 21.7827ZM19.3738 22.3586C19.466 22.3586 19.5551 22.3522 19.641 22.3396C19.7269 22.3248 19.795 22.3101 19.8453 22.2953V22.6971C19.7887 22.7246 19.7049 22.7467 19.5938 22.7636C19.4848 22.7825 19.3864 22.792 19.2983 22.792C18.6319 22.792 18.2986 22.4387 18.2986 21.7321V19.6692H17.8051V19.4161L18.2986 19.1978L18.5187 18.4574H18.8205V19.2611H19.8202V19.6692H18.8205V21.71C18.8205 21.9188 18.8697 22.0791 18.9682 22.1909C19.0667 22.3027 19.2019 22.3586 19.3738 22.3586ZM28.8645 22.7288V20.4729C28.8645 20.1966 28.8059 19.9898 28.6885 19.8527C28.5711 19.7135 28.3887 19.6439 28.1415 19.6439C27.8166 19.6439 27.5766 19.7378 27.4216 19.9255C27.2665 20.1132 27.1889 20.4022 27.1889 20.7924V22.7288H26.6671V20.4729C26.6671 20.1966 26.6084 19.9898 26.491 19.8527C26.3736 19.7135 26.1903 19.6439 25.9409 19.6439C25.6139 19.6439 25.374 19.7431 25.221 19.9413C25.0701 20.1375 24.9946 20.4602 24.9946 20.9095V22.7288H24.4728V19.2611H24.8972L24.9821 19.7357H25.0072C25.1057 19.5669 25.244 19.4351 25.4222 19.3402C25.6024 19.2453 25.8036 19.1978 26.0258 19.1978C26.5644 19.1978 26.9165 19.394 27.082 19.7863H27.1072C27.2099 19.6049 27.3587 19.4615 27.5536 19.356C27.7485 19.2505 27.9706 19.1978 28.22 19.1978C28.6097 19.1978 28.9012 19.2991 29.0939 19.5015C29.289 19.7019 29.3864 20.0236 29.3864 20.4666V22.7288H28.8645ZM35.5132 22.3586C35.6055 22.3586 35.6946 22.3522 35.7806 22.3396C35.8665 22.3248 35.9345 22.3101 35.9849 22.2953V22.6971C35.9283 22.7246 35.8444 22.7467 35.7334 22.7636C35.6244 22.7825 35.5259 22.792 35.4379 22.792C34.7713 22.792 34.4383 22.4387 34.4383 21.7321V19.6692H33.9447V19.4161L34.4383 19.1978L34.6582 18.4574H34.96V19.2611H35.9598V19.6692H34.96V21.71C34.96 21.9188 35.0093 22.0791 35.1078 22.1909C35.2063 22.3027 35.3415 22.3586 35.5132 22.3586ZM38.1321 22.792C37.6228 22.792 37.2204 22.636 36.9249 22.3238C36.6313 22.0116 36.4848 21.5782 36.4848 21.0234C36.4848 20.4644 36.621 20.0204 36.8934 19.6914C37.1678 19.3623 37.5357 19.1978 37.9969 19.1978C38.4284 19.1978 38.7701 19.3412 39.0216 19.6281C39.2731 19.9129 39.3989 20.2894 39.3989 20.7576V21.0898H37.0253C37.0359 21.4969 37.1376 21.8059 37.3303 22.0169C37.5252 22.2278 37.7988 22.3333 38.1507 22.3333C38.5218 22.3333 38.8886 22.2552 39.251 22.0991V22.5674C39.0667 22.6475 38.8918 22.7045 38.7261 22.7382C38.5626 22.7741 38.3647 22.792 38.1321 22.792ZM37.9904 19.6376C37.7138 19.6376 37.4928 19.7283 37.3273 19.9097C37.1638 20.0911 37.0674 20.3421 37.038 20.6627H38.8392C38.8392 20.3316 38.766 20.0784 38.6192 19.9034C38.4727 19.7262 38.263 19.6376 37.9904 19.6376ZM40.8136 22.7288H40.2917V17.8057H40.8136V22.7288Z" fill="#333333"/>
<path d="M23.5956 20.9729C23.5956 21.5445 23.45 21.9906 23.1586 22.3112C22.8673 22.6318 22.4618 22.7921 21.942 22.7921C21.6172 22.7921 21.3301 22.7183 21.0807 22.5707C20.8313 22.423 20.6395 22.211 20.5054 21.9347C20.3713 21.6584 20.3042 21.3378 20.3042 20.9729C20.3042 20.4055 20.4488 19.9625 20.738 19.644C21.0272 19.3255 21.4349 19.1663 21.9609 19.1663C22.4639 19.1663 22.8621 19.3297 23.1555 19.6567C23.4489 19.9815 23.5956 20.4202 23.5956 20.9729ZM21.065 20.9729C21.065 21.7807 21.3615 22.1847 21.9546 22.1847C22.5414 22.1847 22.8348 21.7807 22.8348 20.9729C22.8348 20.1734 22.5393 19.7737 21.9483 19.7737C21.6382 19.7737 21.4129 19.8771 21.2724 20.0838C21.1341 20.2905 21.065 20.5869 21.065 20.9729ZM33.5233 20.9729C33.5233 21.5445 33.3776 21.9906 33.0863 22.3112C32.7949 22.6318 32.3895 22.7921 31.8697 22.7921C31.5448 22.7921 31.2577 22.7183 31.0083 22.5707C30.7589 22.423 30.5673 22.211 30.4332 21.9347C30.299 21.6584 30.2319 21.3378 30.2319 20.9729C30.2319 20.4055 30.3765 19.9625 30.6658 19.644C30.9549 19.3255 31.3626 19.1663 31.8886 19.1663C32.3917 19.1663 32.7898 19.3297 33.0831 19.6567C33.3765 19.9815 33.5233 20.4202 33.5233 20.9729ZM30.9926 20.9729C30.9926 21.7807 31.2892 22.1847 31.8822 22.1847C32.4691 22.1847 32.7625 21.7807 32.7625 20.9729C32.7625 20.1734 32.467 19.7737 31.876 19.7737C31.5659 19.7737 31.3405 19.8771 31.2002 20.0838C31.0617 20.2905 30.9926 20.5869 30.9926 20.9729Z" fill="#2F80ED"/>
</g>
<defs>
<filter id="filter0_d" x="0" y="0" width="48" height="48" filterUnits="userSpaceOnUse" color-interpolation-filters="sRGB">
<feFlood flood-opacity="0" result="BackgroundImageFix"/>
<feColorMatrix in="SourceAlpha" type="matrix" values="0 0 0 0 0 0 0 0 0 0 0 0 0 0 0 0 0 0 127 0"/>
<feOffset dy="4"/>
<feGaussianBlur stdDeviation="2"/>
<feColorMatrix type="matrix" values="0 0 0 0 0 0 0 0 0 0 0 0 0 0 0 0 0 0 0.25 0"/>
<feBlend mode="normal" in2="BackgroundImageFix" result="effect1_dropShadow"/>
<feBlend mode="normal" in="SourceGraphic" in2="effect1_dropShadow" result="shape"/>
</filter>
<clipPath id="clip0">
<rect width="34.7664" height="9.71963" fill="white" transform="translate(6.6167 14.9531)"/>
</clipPath>
</defs>
</svg>
