<svg width="186" height="52" viewBox="0 0 186 52" fill="none" xmlns="http://www.w3.org/2000/svg">
<path d="M80.3706 17.2447V21.2244L108.304 4.69464C108.546 4.56049 108.802 4.48596 109.074 4.48596C109.346 4.48596 109.618 4.56049 109.845 4.69464L137.778 21.2244V17.2447L109.074 0.25293L80.3706 17.2447Z" fill="#2F80ED"/>
<path d="M13.9092 19.0698C11.207 19.0698 9.07104 19.9783 7.5013 21.7951C5.94278 23.6006 5.16352 26.0777 5.16352 29.2261C5.16352 32.4648 5.91476 34.97 7.41721 36.7417C8.93089 38.5021 11.0837 39.3824 13.8756 39.3824C15.591 39.3824 17.5476 39.072 19.7453 38.4514V40.9735C18.041 41.6167 15.9386 41.9384 13.4383 41.9384C9.81666 41.9384 7.01917 40.8324 5.04579 38.6207C3.08363 36.4088 2.10254 33.2661 2.10254 29.1923C2.10254 26.642 2.57346 24.4076 3.5153 22.4891C4.46836 20.5708 5.83627 19.0925 7.61903 18.0542C9.41302 17.0161 11.521 16.497 13.9429 16.497C16.5216 16.497 18.7753 16.9709 20.7039 17.9188L19.4929 20.3902C17.6316 19.51 15.7705 19.0698 13.9092 19.0698ZM27.3136 23.0477V35.0829C27.3136 36.595 27.6556 37.7235 28.3395 38.4683C29.0235 39.2131 30.0942 39.5854 31.5519 39.5854C33.4804 39.5854 34.8875 39.0552 35.7733 37.9944C36.6703 36.9336 37.1188 35.2014 37.1188 32.7977V23.0477H39.9107V41.5998H37.6065L37.2029 39.1115H37.0515C36.4798 40.0256 35.6836 40.7253 34.6633 41.2105C33.6542 41.6957 32.4994 41.9384 31.1987 41.9384C28.9562 41.9384 27.2744 41.4023 26.1531 40.3303C25.0431 39.2582 24.488 37.543 24.488 35.1844V23.0477H27.3136ZM57.7384 36.5386C57.7384 38.2652 57.0992 39.5968 55.8211 40.5333C54.5429 41.47 52.7489 41.9384 50.4392 41.9384C47.9949 41.9384 46.0887 41.5491 44.7208 40.7704V38.1637C45.6066 38.615 46.5541 38.9705 47.5632 39.23C48.5835 39.4895 49.5645 39.6193 50.5065 39.6193C51.964 39.6193 53.0853 39.388 53.8701 38.9253C54.6549 38.4514 55.0474 37.7348 55.0474 36.7756C55.0474 36.0534 54.7335 35.4384 54.1056 34.9305C53.4889 34.4114 52.2779 33.8021 50.4728 33.1024C48.7572 32.4591 47.5352 31.9005 46.8063 31.4266C46.0887 30.9414 45.5506 30.394 45.1918 29.7847C44.8441 29.1753 44.6703 28.4475 44.6703 27.6011C44.6703 26.0889 45.2815 24.8984 46.5035 24.0295C47.7257 23.1493 49.4019 22.7091 51.5323 22.7091C53.5169 22.7091 55.4567 23.1154 57.3516 23.9279L56.3592 26.2131C54.5092 25.4457 52.8329 25.0621 51.3305 25.0621C50.0075 25.0621 49.0095 25.2708 48.3368 25.6884C47.6641 26.1059 47.3277 26.6814 47.3277 27.4149C47.3277 27.9114 47.451 28.3346 47.6977 28.6844C47.9556 29.0343 48.3648 29.3672 48.9255 29.6831C49.4861 29.9991 50.5625 30.4561 52.1546 31.0542C54.341 31.8555 55.8155 32.6623 56.5779 33.4749C57.3516 34.2873 57.7384 35.3086 57.7384 36.5386ZM68.25 39.6193C68.7433 39.6193 69.2199 39.5854 69.6796 39.5177C70.1393 39.4388 70.5036 39.3598 70.7728 39.2808V41.4305C70.4701 41.5773 70.0215 41.6957 69.4274 41.786C68.8442 41.8875 68.3173 41.9384 67.8464 41.9384C64.2808 41.9384 62.4981 40.0481 62.4981 36.2677V25.2314H59.8575V23.8772L62.4981 22.7091L63.6754 18.7482H65.2899V23.0477H70.6382V25.2314H65.2899V36.1493C65.2899 37.2665 65.5534 38.1241 66.0804 38.7222C66.6074 39.3202 67.3306 39.6193 68.25 39.6193ZM119.025 41.5998V29.5308C119.025 28.0525 118.712 26.9466 118.084 26.2131C117.456 25.4683 116.48 25.0959 115.157 25.0959C113.419 25.0959 112.135 25.598 111.306 26.6024C110.476 27.6067 110.061 29.1527 110.061 31.2405V41.5998H107.269V29.5308C107.269 28.0525 106.955 26.9466 106.327 26.2131C105.699 25.4683 104.718 25.0959 103.384 25.0959C101.635 25.0959 100.351 25.6263 99.5326 26.687C98.7252 27.7365 98.3217 29.4631 98.3217 31.8667V41.5998H95.5297V23.0477H97.8003L98.2544 25.5868H98.3889C98.9158 24.684 99.6559 23.9787 100.609 23.4709C101.573 22.9631 102.65 22.7091 103.838 22.7091C106.72 22.7091 108.603 23.7586 109.489 25.8577H109.624C110.173 24.8871 110.969 24.1197 112.012 23.5556C113.055 22.9913 114.243 22.7091 115.577 22.7091C117.662 22.7091 119.222 23.2509 120.253 24.3342C121.296 25.4062 121.818 27.1272 121.818 29.497V41.5998H119.025ZM154.596 39.6193C155.09 39.6193 155.566 39.5854 156.027 39.5177C156.486 39.4388 156.85 39.3598 157.12 39.2808V41.4305C156.817 41.5773 156.368 41.6957 155.774 41.786C155.191 41.8875 154.664 41.9384 154.193 41.9384C150.627 41.9384 148.845 40.0481 148.845 36.2677V25.2314H146.204V23.8772L148.845 22.7091L150.022 18.7482H151.636V23.0477H156.985V25.2314H151.636V36.1493C151.636 37.2665 151.9 38.1241 152.427 38.7222C152.954 39.3202 153.678 39.6193 154.596 39.6193ZM168.607 41.9384C165.882 41.9384 163.73 41.1033 162.149 39.4331C160.578 37.763 159.794 35.444 159.794 32.4761C159.794 29.4857 160.523 27.1102 161.98 25.3498C163.448 23.5894 165.416 22.7091 167.884 22.7091C170.192 22.7091 172.02 23.4765 173.366 25.0112C174.712 26.5347 175.384 28.5491 175.384 31.0542V32.8316H162.686C162.742 35.0096 163.286 36.6627 164.317 37.7912C165.36 38.9197 166.824 39.4839 168.707 39.4839C170.692 39.4839 172.654 39.0664 174.593 38.2314V40.7365C173.607 41.1653 172.671 41.47 171.785 41.6505C170.91 41.8425 169.852 41.9384 168.607 41.9384ZM167.849 25.0621C166.369 25.0621 165.187 25.5473 164.301 26.5177C163.426 27.4883 162.911 28.8312 162.754 30.5465H172.39C172.39 28.7748 171.999 27.4206 171.213 26.4839C170.429 25.536 169.307 25.0621 167.849 25.0621ZM182.953 41.5998H180.161V15.2612H182.953V41.5998Z" fill="#333333"/>
<path d="M90.8371 32.2053C90.8371 35.2635 90.0578 37.6502 88.4993 39.3655C86.9408 41.0808 84.7712 41.9385 81.9905 41.9385C80.2526 41.9385 78.7165 41.5435 77.3823 40.7536C76.048 39.9636 75.022 38.8294 74.3044 37.3511C73.5868 35.8728 73.228 34.1576 73.228 32.2053C73.228 29.1698 74.0016 26.8 75.549 25.096C77.0962 23.392 79.2772 22.54 82.0914 22.54C84.7824 22.54 86.9127 23.4146 88.4824 25.1637C90.0522 26.9016 90.8371 29.2487 90.8371 32.2053ZM77.2981 32.2053C77.2981 36.5275 78.8847 38.6885 82.0577 38.6885C85.1972 38.6885 86.767 36.5275 86.767 32.2053C86.767 27.9284 85.186 25.79 82.0241 25.79C80.3647 25.79 79.1594 26.343 78.4081 27.4488C77.6681 28.5547 77.2981 30.1402 77.2981 32.2053ZM143.95 32.2053C143.95 35.2635 143.171 37.6502 141.613 39.3655C140.053 41.0808 137.884 41.9385 135.104 41.9385C133.365 41.9385 131.829 41.5435 130.495 40.7536C129.161 39.9636 128.136 38.8294 127.418 37.3511C126.7 35.8728 126.341 34.1576 126.341 32.2053C126.341 29.1698 127.115 26.8 128.663 25.096C130.209 23.392 132.391 22.54 135.205 22.54C137.896 22.54 140.026 23.4146 141.595 25.1637C143.165 26.9016 143.95 29.2487 143.95 32.2053ZM130.411 32.2053C130.411 36.5275 131.998 38.6885 135.17 38.6885C138.31 38.6885 139.88 36.5275 139.88 32.2053C139.88 27.9284 138.299 25.79 135.137 25.79C133.478 25.79 132.272 26.343 131.521 27.4488C130.781 28.5547 130.411 30.1402 130.411 32.2053Z" fill="#2F80ED"/>
</svg>
